# xmcd
#
# Track frame offsets:
# 150
# 11452
# 23862
# 36442
# 49625
# 63402
# 76225
# 88485
# 102105
# 114987
# 128397
# 139815
# 152107
# 163467
# 175320
# 187547
#
# Disc length: 2653 seconds
#
#
# Revision: 0
# Processed by: cddbd v1.5.2PL0 Copyright (c) Steve Scherf et al.
# Submitted via: Nero 7, 11, 10, 0 
#
DISCID=c80a5b10
DTITLE=Sonny Boy Williamson - P-Vine Presents 21 Blues Giants
DYEAR=1995
DGENRE=Blues
TTITLE0=Do It If You Wanna
TTITLE1=Cool, Cool Blues
TTITLE2=Come On Back Home
TTITLE3=Stop Crying
TTITLE4=Eyesight To The Blind
TTITLE5=West Memphis Blues
TTITLE6=I Cross My Heart
TTITLE7=Crazy About You Baby
TTITLE8=Nine Below Zero
TTITLE9=Mighty Long Time
TTITLE10=She Brought Life Back To The Dead
TTITLE11=Stop Now Baby
TTITLE12=Mr. Downchild
TTITLE13=Sonny Boy's Christmas Blues
TTITLE14=Pontiac Blues
TTITLE15=Too Close Together
EXTD=
EXTT0=Do It If You Wanna
EXTT1=Cool, Cool Blues
EXTT2=Come On Back Home
EXTT3=Stop Crying
EXTT4=Eyesight To The Blind
EXTT5=West Memphis Blues
EXTT6=I Cross My Heart
EXTT7=Crazy About You Baby
EXTT8=Nine Below Zero
EXTT9=Mighty Long Time
EXTT10=She Brought Life Back To The Dead
EXTT11=Stop Now Baby
EXTT12=Mr. Downchild
EXTT13=Sonny Boy's Christmas Blues
EXTT14=Pontiac Blues
EXTT15=Too Close Together
PLAYORDER=
